<svg xmlns="http://www.w3.org/2000/svg" xmlns:xlink="http://www.w3.org/1999/xlink" viewBox="0,0,256,256" width="100px" height="100px"><g fill="none" fill-rule="nonzero" stroke="none" stroke-width="1" stroke-linecap="butt" stroke-linejoin="miter" stroke-miterlimit="10" stroke-dasharray="" stroke-dashoffset="0" font-family="none" font-weight="none" font-size="none" text-anchor="none" style="mix-blend-mode: normal"><g transform="scale(2.56,2.56)"><path d="M78.681,97.352c-2.691,0 -5.186,-1.34 -6.672,-3.584c-1.03,-1.556 -2.025,-3.189 -2.971,-4.875c-3.629,-0.863 -10.378,-2.214 -17.038,-2.214c-6.66,0 -13.409,1.351 -17.038,2.213c-0.945,1.687 -1.94,3.32 -2.971,4.875c-1.484,2.244 -3.979,3.584 -6.672,3.584c-1.236,0 -2.474,-0.293 -3.58,-0.847l-10.668,-5.334c-2.094,-1.045 -3.62,-2.95 -4.186,-5.225c-0.567,-2.276 -0.109,-4.676 1.256,-6.583l2.48,-3.473c-0.067,-0.201 -0.127,-0.404 -0.179,-0.61c-0.566,-2.278 -0.11,-4.676 1.251,-6.583l2.485,-3.479c-0.068,-0.202 -0.128,-0.407 -0.18,-0.615c-0.408,-1.639 1.595,-8.639 2.206,-10.177c-1.979,-0.536 -5.59,3.452 -6.652,1.669c-1.122,-1.89 -1.42,-4.183 -0.816,-6.294l3.557,-12.448c0.729,-2.554 2.681,-4.533 5.106,-5.369c-1.027,-2.731 -0.345,-6.732 -0.513,-9.676c-1.565,-0.89 -4.106,-1.18 -4.788,-2.929c-1.092,-2.798 -0.536,-5.939 1.453,-8.195c2.54,-2.882 6.182,-4.535 9.99,-4.535c1.526,0 3.029,0.26 4.45,0.763c1.419,-0.503 2.92,-0.763 4.443,-0.763c5.897,0 11.017,3.811 12.739,9.484c0.191,0.629 0.303,1.269 0.336,1.907c2.109,-0.475 4.283,-0.719 6.489,-0.719c2.206,0 4.381,0.244 6.489,0.719c0.034,-0.639 0.145,-1.28 0.337,-1.91c1.722,-5.67 6.841,-9.481 12.738,-9.481c1.523,0 3.024,0.26 4.443,0.763c1.421,-0.503 2.924,-0.763 4.45,-0.763c3.809,0 7.45,1.653 9.991,4.535c1.988,2.255 2.544,5.396 1.451,8.198c-0.681,1.747 -1.924,3.157 -3.49,4.047c-0.168,2.944 -0.782,5.824 -1.81,8.555c2.426,0.835 4.379,2.815 5.107,5.372l3.557,12.447c0.602,2.109 0.305,4.398 -0.815,6.284c-1.059,1.781 -2.785,3.089 -4.776,3.633c0.611,1.538 0.735,3.243 0.327,4.884c-0.052,0.208 -0.111,0.412 -0.18,0.614l2.483,3.477c1.363,1.909 1.819,4.308 1.254,6.582c-0.052,0.208 -0.112,0.412 -0.18,0.614l2.482,3.477c1.363,1.905 1.821,4.304 1.254,6.581c-0.565,2.274 -2.092,4.179 -4.188,5.226l-10.669,5.335c-1.099,0.55 -2.336,0.843 -3.572,0.843z" fill="#3e4451" opacity="0.35"></path><path d="M76.681,95.352c-2.691,0 -5.186,-1.34 -6.672,-3.584c-1.03,-1.556 -2.025,-3.189 -2.971,-4.875c-3.629,-0.863 -10.378,-2.214 -17.038,-2.214c-6.66,0 -13.409,1.351 -17.038,2.213c-0.945,1.687 -1.94,3.32 -2.971,4.875c-1.484,2.244 -3.979,3.584 -6.672,3.584c-1.236,0 -2.474,-0.293 -3.58,-0.847l-10.668,-5.334c-2.094,-1.045 -3.62,-2.95 -4.186,-5.225c-0.567,-2.276 -0.109,-4.676 1.256,-6.583l2.48,-3.473c-0.067,-0.201 -0.127,-0.404 -0.179,-0.61c-0.566,-2.278 -0.11,-4.676 1.251,-6.583l2.485,-3.479c-0.068,-0.202 -0.128,-0.407 -0.18,-0.615c-0.408,-1.639 -0.284,-3.343 0.327,-4.881c-1.979,-0.536 -3.711,-1.844 -4.773,-3.627c-1.122,-1.89 -1.42,-4.183 -0.816,-6.294l3.557,-12.448c0.729,-2.554 2.681,-4.533 5.106,-5.369c-1.027,-2.731 -1.642,-5.61 -1.81,-8.555c-1.565,-0.89 -2.81,-2.301 -3.491,-4.05c-1.092,-2.798 -0.536,-5.939 1.453,-8.195c2.54,-2.882 6.182,-4.535 9.99,-4.535c1.526,0 3.029,0.26 4.45,0.763c1.419,-0.503 2.92,-0.763 4.443,-0.763c5.897,0 11.017,3.811 12.739,9.484c0.191,0.629 0.303,1.269 0.336,1.907c2.109,-0.475 4.283,-0.719 6.489,-0.719c2.206,0 4.381,0.244 6.489,0.719c0.034,-0.639 0.145,-1.28 0.337,-1.91c1.722,-5.67 6.841,-9.481 12.738,-9.481c1.523,0 3.024,0.26 4.443,0.763c1.421,-0.503 2.924,-0.763 4.45,-0.763c3.809,0 7.45,1.653 9.991,4.535c1.988,2.255 2.544,5.396 1.451,8.198c-0.681,1.747 -1.924,3.157 -3.49,4.047c-0.168,2.944 -0.782,5.824 -1.81,8.555c2.426,0.835 4.379,2.815 5.107,5.372l3.557,12.447c0.602,2.109 0.305,4.398 -0.815,6.284c-1.059,1.781 -2.785,3.089 -4.776,3.633c0.611,1.538 0.735,3.243 0.327,4.884c-0.052,0.208 -0.111,0.412 -0.18,0.614l2.483,3.477c1.363,1.909 1.819,4.308 1.254,6.582c-0.052,0.208 -0.112,0.412 -0.18,0.614l2.482,3.477c1.363,1.905 1.821,4.304 1.254,6.581c-0.565,2.274 -2.092,4.179 -4.188,5.226l-10.669,5.335c-1.099,0.55 -2.336,0.843 -3.572,0.843z" fill="#eceff4"></path><path d="M78.458,12.649c1.595,0 3.011,0.715 3.989,1.825c-2.23,0.235 -3.989,2.111 -3.989,4.4v0.889c0,6.972 -3.403,13.172 -8.615,17.074c0.75,1.902 1.236,3.934 1.411,6.058c2.807,-2.989 6.396,-5.345 10.761,-5.345l3.557,12.45c0,0 -4.162,0.925 -9.516,3.344c-0.26,0.117 -0.527,0.244 -0.792,0.367l4.972,6.96l-2.998,1.495l6.555,9.177l-2.998,1.495l6.555,9.177l-10.672,5.336c-1.608,-2.429 -3.004,-4.884 -4.226,-7.309c-5.84,-1.687 -14.656,-3.363 -22.453,-3.363c-7.797,0 -16.613,1.676 -22.453,3.363c-1.222,2.425 -2.618,4.88 -4.226,7.309l-10.672,-5.336l6.555,-9.177l-2.998,-1.495l6.555,-9.177l-2.998,-1.495l4.972,-6.96c-0.265,-0.124 -0.532,-0.251 -0.792,-0.367c-5.352,-2.419 -9.514,-3.344 -9.514,-3.344l3.557,-12.45c4.365,0 7.954,2.356 10.761,5.345c0.175,-2.124 0.66,-4.156 1.411,-6.058c-5.211,-3.901 -8.615,-10.101 -8.615,-17.074v-0.889c0,-2.289 -1.759,-4.166 -3.989,-4.4c0.978,-1.11 2.394,-1.825 3.989,-1.825c1.861,0 3.495,0.955 4.45,2.398c0.958,-1.441 2.593,-2.398 4.443,-2.398c2.401,0 4.42,1.617 5.085,3.808c-0.487,-0.148 -0.994,-0.251 -1.528,-0.251c-2.935,0 -5.336,2.401 -5.336,5.336c0,4.228 1.865,7.505 4.803,9.637c3.913,-4.795 9.866,-7.858 16.541,-7.858c6.675,0 12.628,3.064 16.541,7.858c2.938,-2.132 4.803,-5.408 4.803,-9.637c0,-2.935 -2.401,-5.336 -5.336,-5.336c-0.534,0 -1.041,0.103 -1.528,0.251c0.665,-2.191 2.684,-3.808 5.085,-3.808c1.851,0 3.486,0.957 4.443,2.398c0.955,-1.443 2.589,-2.398 4.45,-2.398M78.458,9.649c-1.603,0 -3.139,0.458 -4.451,1.288c-1.311,-0.83 -2.845,-1.288 -4.442,-1.288c-3.681,0 -6.878,2.386 -7.956,5.937c-0.322,1.059 -0.034,2.209 0.749,2.992c0.571,0.571 1.338,0.879 2.122,0.879c0.29,0 0.583,-0.042 0.869,-0.129c0.271,-0.082 0.486,-0.122 0.658,-0.122c1.288,0 2.336,1.048 2.336,2.336c0,2.067 -0.576,3.886 -1.686,5.371c-4.488,-4.222 -10.404,-6.592 -16.657,-6.592c-6.253,0 -12.169,2.37 -16.658,6.592c-1.11,-1.485 -1.686,-3.304 -1.686,-5.371c0,-1.288 1.048,-2.336 2.336,-2.336c0.172,0 0.387,0.04 0.658,0.122c0.286,0.087 0.579,0.129 0.869,0.129c0.784,0 1.551,-0.308 2.122,-0.879c0.782,-0.783 1.07,-1.933 0.749,-2.992c-1.078,-3.551 -4.275,-5.937 -7.956,-5.937c-1.598,0 -3.131,0.458 -4.442,1.288c-1.312,-0.831 -2.848,-1.288 -4.451,-1.288c-2.374,0 -4.649,1.036 -6.24,2.841c-0.742,0.842 -0.952,2.028 -0.544,3.073c0.408,1.045 1.365,1.776 2.481,1.894c0.731,0.077 1.304,0.699 1.304,1.417v0.889c0,6.137 2.397,12.069 6.562,16.549c-2.273,-1.172 -4.652,-1.762 -7.119,-1.762c-1.339,0 -2.517,0.888 -2.885,2.176l-3.557,12.45c-0.227,0.795 -0.116,1.648 0.307,2.359c0.423,0.71 1.12,1.215 1.927,1.394c0.029,0.007 2.67,0.609 6.358,2.062l-2.812,3.937c-0.51,0.714 -0.682,1.616 -0.47,2.468c0.199,0.799 0.716,1.478 1.427,1.883l-4.515,6.321c-0.51,0.714 -0.682,1.617 -0.47,2.468c0.199,0.799 0.716,1.478 1.427,1.883l-4.515,6.321c-0.51,0.714 -0.682,1.615 -0.47,2.467c0.211,0.852 0.785,1.568 1.57,1.96l10.672,5.336c0.429,0.214 0.887,0.317 1.34,0.317c0.979,0 1.931,-0.48 2.503,-1.344c1.339,-2.022 2.611,-4.179 3.792,-6.427c5.434,-1.46 13.285,-2.901 20.385,-2.901c7.1,0 14.952,1.441 20.385,2.901c1.181,2.248 2.454,4.405 3.792,6.427c0.572,0.865 1.525,1.344 2.503,1.344c0.453,0 0.911,-0.103 1.34,-0.317l10.672,-5.336c0.785,-0.392 1.358,-1.109 1.57,-1.96c0.212,-0.852 0.04,-1.753 -0.47,-2.467l-4.515,-6.321c0.711,-0.405 1.229,-1.084 1.427,-1.883c0.212,-0.852 0.04,-1.754 -0.47,-2.468l-4.515,-6.321c0.711,-0.405 1.229,-1.084 1.427,-1.883c0.212,-0.852 0.04,-1.754 -0.47,-2.468l-2.812,-3.937c3.69,-1.454 6.329,-2.056 6.361,-2.063c0.805,-0.181 1.502,-0.686 1.924,-1.396c0.422,-0.71 0.533,-1.562 0.307,-2.356l-3.555,-12.451c-0.368,-1.288 -1.545,-2.176 -2.885,-2.176c-2.467,0 -4.846,0.59 -7.119,1.762c4.165,-4.479 6.562,-10.412 6.562,-16.549v-0.889c0,-0.718 0.573,-1.34 1.304,-1.417c1.116,-0.118 2.073,-0.848 2.481,-1.894c0.408,-1.046 0.198,-2.231 -0.544,-3.073c-1.592,-1.804 -3.867,-2.84 -6.241,-2.84z" fill="#3e4451"></path><path d="M50,76.679c8.096,0 17.302,1.807 23.122,3.557l-1.779,-35.572h-42.686l-1.779,35.572c5.82,-1.75 15.026,-3.557 23.122,-3.557z" fill="#dd4f2c"></path><path d="M50,76.679c8.096,0 17.302,1.807 23.122,3.557l-1.779,-35.572h-42.686l-1.779,35.572c5.82,-1.75 15.026,-3.557 23.122,-3.557z" fill="#3e4451" opacity="0.35"></path><path d="M78.458,12.649c1.595,0 3.011,0.715 3.989,1.825c-2.23,0.235 -3.989,2.111 -3.989,4.4v0.889c0,0.301 -3.616,3.273 -3.557,3.557c-0.03,0 0.03,0 0,0c-2.947,0 -1.779,-2.389 -1.779,-5.336c0,-2.947 2.389,-5.335 5.336,-5.335zM28.657,21.542c0,-2.935 2.401,-5.336 5.336,-5.336c0.534,0 1.04,0.103 1.528,0.251c-0.665,-2.191 -2.684,-3.808 -5.085,-3.808c-2.935,0 -5.336,2.401 -5.336,5.336c0,1.375 0.542,2.615 1.409,3.557z" fill="#f9b84f"></path><path d="M71.343,21.542c0,-2.935 -2.401,-5.336 -5.336,-5.336c-0.534,0 -1.04,0.103 -1.528,0.251c0.665,-2.191 2.684,-3.808 5.085,-3.808c2.935,0 5.336,2.401 5.336,5.336c0,1.375 -0.542,2.615 -1.409,3.557z" fill="#f9b84f"></path><path d="M50,42.886c-11.788,0 -21.343,0.796 -21.343,1.779c0,0.982 9.556,1.779 21.343,1.779c11.787,0 21.343,-0.796 21.343,-1.779c0,-0.983 -9.555,-1.779 -21.343,-1.779z" fill="#ffc107"></path><path d="M87.351,82.015l-10.672,5.336c-3.415,-5.158 -5.905,-10.441 -7.701,-15.278l6.794,-1.512l2.686,-0.996zM12.649,82.015l10.672,5.336c3.415,-5.158 5.905,-10.441 7.701,-15.278l-6.794,-1.512l-2.686,-0.996z" fill="#dd4f2c"></path><path d="M16.206,71.343l6.456,3.219l6.083,3.041c2.775,-6.065 4.482,-11.792 5.496,-16.292l-5.923,-1.298l-3.219,-1.121z" fill="#de5147"></path><path d="M19.763,60.672l6.954,3.468l5.976,3.006c2.704,-8.893 3.077,-15.367 3.077,-15.367l-0.711,-1.743l-2.632,-0.587l-3.771,-1.227z" fill="#f4665c"></path><path d="M83.794,71.343l-6.456,3.219l-6.083,3.041c-2.775,-6.065 -4.482,-11.792 -5.496,-16.292l5.923,-1.298l3.219,-1.121z" fill="#de5147"></path><path d="M80.237,60.672l-6.954,3.468l-5.976,3.006c-2.704,-8.893 -3.077,-15.367 -3.077,-15.367l0.711,-1.743l2.632,-0.587l3.771,-1.227z" fill="#f4665c"></path><path d="M50,35.771c-10.805,0 -19.565,4.778 -19.565,10.672c0,5.894 8.76,10.671 19.565,10.671c10.805,0 19.565,-4.778 19.565,-10.672c0,-5.894 -8.76,-10.671 -19.565,-10.671z" fill="#f4665c"></path><path d="M71.343,44.664c0,0.253 -0.635,2.271 -1.779,2.488c-3.293,0.628 -10.811,1.069 -19.564,1.069c-8.753,0 -16.269,-0.441 -19.565,-1.069c-1.144,-0.217 -1.779,-2.236 -1.779,-2.488c0,-11.792 9.551,-21.343 21.343,-21.343c11.792,0 21.344,9.551 21.344,21.343z" fill="#de5147"></path><path d="M71.343,17.985v3.557c0,7.846 -6.383,12.45 -14.229,12.45h-14.228c-7.846,0 -14.229,-4.605 -14.229,-12.45v-3.557h-7.114v1.779c0,11.739 9.605,21.343 21.343,21.343h14.229c11.739,0 21.343,-9.605 21.343,-21.343v-1.779z" fill="#f9b84f"></path><path d="M50,30.435c-3.929,0 -7.114,3.185 -7.114,7.114c0,3.929 3.185,7.114 7.114,7.114c3.929,0 7.114,-3.185 7.114,-7.114c0,-3.929 -3.185,-7.114 -7.114,-7.114z" fill="#ffc571"></path><path d="M85.572,50c0,0 -4.162,0.925 -9.516,3.344c-3.326,1.494 -7.114,3.575 -10.636,6.367c-0.534,-2.49 -0.818,-4.518 -0.996,-5.905c0.445,-1.014 1.103,-2.472 1.992,-4.109c2.864,-5.194 8.093,-12.148 15.599,-12.148z" fill="#ff7575"></path><path d="M76.679,42.886c-1.965,0 -3.557,1.593 -3.557,3.557c0,1.965 1.593,3.557 3.557,3.557c1.965,0 3.557,-1.593 3.557,-3.557c0.001,-1.965 -1.592,-3.557 -3.557,-3.557z" fill="#ffc571"></path><path d="M14.428,50c0,0 4.162,0.925 9.516,3.344c3.326,1.494 7.114,3.575 10.636,6.367c0.534,-2.49 0.818,-4.518 0.996,-5.905c-0.445,-1.014 -1.103,-2.472 -1.992,-4.109c-2.864,-5.193 -8.093,-12.147 -15.599,-12.147z" fill="#ff7575"></path><path d="M23.321,42.886c-1.965,0 -3.557,1.593 -3.557,3.557c0,1.965 1.593,3.557 3.557,3.557c1.964,0 3.557,-1.593 3.557,-3.557c0,-1.965 -1.593,-3.557 -3.557,-3.557z" fill="#ffc571"></path><path d="M21.542,12.649c-1.595,0 -3.011,0.715 -3.989,1.825c2.23,0.235 3.989,2.111 3.989,4.4v0.889c0,0.301 3.616,3.273 3.557,3.557c0.03,0 -0.03,0 0,0c2.947,0 1.779,-2.389 1.779,-5.336c0,-2.947 -2.389,-5.335 -5.336,-5.335z" fill="#f9b84f"></path></g></g></svg>