<svg xmlns="http://www.w3.org/2000/svg" xmlns:xlink="http://www.w3.org/1999/xlink" viewBox="0,0,256,256" width="67px" height="67px"><g fill="#eadfd9" fill-rule="evenodd" stroke="none" stroke-width="1" stroke-linecap="butt" stroke-linejoin="miter" stroke-miterlimit="10" stroke-dasharray="" stroke-dashoffset="0" font-family="none" font-weight="none" font-size="none" text-anchor="none" style="mix-blend-mode: normal"><g transform="scale(0.05905,0.05905)"><path d="M2167,162l-3,1v2l-7,-1l-7,1v-2l-3,-1l-4,1v-1c-974,183 -1823,1032 -2006,2006c92,486 350,942 706,1299c-1,-4 -3,-8 -4,-12c0,0 207,-338 401,-423c195,-85 559,-25 559,-25c0,0 60,304 347,381l11,3l11,-3c287,-77 347,-381 347,-381c0,0 364,-59 559,25c195,85 401,423 401,423c-1,4 -3,8 -4,12c357,-357 615,-812 706,-1299c-184,-973 -1033,-1822 -2006,-2006v1zM2154,3243v-18c-51,-149 -97,-274 -129,-458c14,-281 250,-281 264,0c-32,184 -78,309 -129,458v18l-3,-9zM2052,1714l-401,25c0,0 290,305 401,-25zM2262,1714l400,25c0,0 -290,305 -400,-25zM1766,2677c59,16 -16,-7 29,17c8,4 45,29 46,29c82,47 36,35 135,50c19,-366 344,-366 362,0c99,-15 53,-3 135,-50c1,-1 38,-25 46,-29c45,-24 -23,-4 36,-20c-142,-346 -668,-361 -789,4zM2160,664v-5l-3,2l-3,-2v5l-791,641c-59,52 -119,97 -191,158l-208,166c-61,50 -114,91 -160,130c-35,19 -63,37 -78,50c-620,530 642,786 985,792c218,-445 675,-445 893,0c342,-6 1605,-263 985,-792c-15,-13 -42,-30 -78,-50c-46,-39 -99,-80 -160,-130l-208,-166c-73,-61 -132,-107 -191,-158l-791,-641v0zM1584,2467c-138,-313 -186,-412 -116,-711c-51,6 -104,14 -159,22c-183,35 -491,113 -548,251c-135,324 575,463 823,437v0zM2730,2467c126,-286 182,-430 116,-711c51,6 104,14 159,22c183,35 491,113 548,251c135,324 -575,463 -823,437v0zM2150,65v-1l7,1l7,-1v1h3h4v0c520,-40 1091,85 1663,428l4,-4c2,3 3,6 5,9c3,2 6,3 9,5l-4,4c343,571 468,1142 428,1662c40,520 -85,1091 -428,1662l4,4c-3,2 -6,3 -9,5c-2,3 -3,6 -5,9l-4,-4c-814,489 -1125,469 -1663,428v0h-4h-3v1l-7,-1l-7,1v-1h-3h-4v0c-537,42 -849,61 -1663,-428l-4,4c-2,-3 -3,-6 -5,-9c-3,-2 -6,-3 -9,-5l4,-4c-343,-571 -468,-1142 -428,-1662c-40,-520 85,-1091 428,-1662l-4,-4c3,-2 6,-3 9,-5c2,-3 3,-6 5,-9l4,4c571,-343 1143,-468 1663,-428v0h4zM1751,4210c-2,-3 -4,-7 -6,-11c-814,-217 -1443,-856 -1645,-1676c-1,422 130,853 434,1253c388,295 806,427 1216,434zM100,1813c205,-835 853,-1482 1687,-1687c-422,-1 -853,130 -1253,434c-304,400 -435,831 -434,1253zM2563,4210c2,-3 4,-7 6,-11c814,-217 1443,-856 1645,-1676c1,422 -130,853 -434,1253c-388,295 -806,427 -1216,434zM4214,1813c-205,-835 -853,-1482 -1687,-1687c422,-1 853,130 1253,434c304,400 435,831 434,1253z"></path></g></g></svg>