<svg xmlns="http://www.w3.org/2000/svg" xmlns:xlink="http://www.w3.org/1999/xlink" viewBox="0,0,256,256" width="240px" height="240px"><g fill="none" fill-rule="nonzero" stroke="none" stroke-width="1" stroke-linecap="butt" stroke-linejoin="miter" stroke-miterlimit="10" stroke-dasharray="" stroke-dashoffset="0" font-family="none" font-weight="none" font-size="none" text-anchor="none" style="mix-blend-mode: normal"><g transform="scale(4.26667,4.26667)"><rect x="1" y="1" width="58" height="58" rx="4" ry="0" fill="#575d6b"></rect><rect x="5" y="5" width="10" height="4" rx="2" ry="0" fill="#3e4451"></rect><rect x="25" y="5" width="10" height="4" rx="2" ry="0" fill="#3e4451"></rect><rect x="45" y="5" width="10" height="4" rx="2" ry="0" fill="#3e4451"></rect><rect x="5" y="14" width="10" height="7" rx="1" ry="0" fill="#bf616a"></rect><rect x="5" y="25" width="10" height="7" rx="1" ry="0" fill="#bf616a"></rect><rect x="5" y="36" width="10" height="7" rx="1" ry="0" fill="#bf616a"></rect><rect x="5" y="47" width="10" height="7" rx="1" ry="0" fill="#bf616a"></rect><rect x="25" y="14" width="10" height="7" rx="1" ry="0" fill="#276271"></rect><rect x="25" y="25" width="10" height="7" rx="1" ry="0" fill="#276271"></rect><rect x="45" y="14" width="10" height="7" rx="1" ry="0" fill="#aebe8c"></rect><rect x="45" y="25" width="10" height="7" rx="1" ry="0" fill="#aebe8c"></rect><rect x="45" y="36" width="10" height="7" rx="1" ry="0" fill="#aebe8c"></rect><path d="M55,0h-50c-2.76005,0.00331 -4.99669,2.23995 -5,5v4c0,0.55228 0.44772,1 1,1c0.55228,0 1,-0.44772 1,-1v-4c0,-1.65685 1.34315,-3 3,-3h14v56h-14c-1.65685,0 -3,-1.34315 -3,-3v-42c0,-0.55228 -0.44772,-1 -1,-1c-0.55228,0 -1,0.44772 -1,1v42c0.00331,2.76005 2.23995,4.99669 5,5h50c2.76005,-0.00331 4.99669,-2.23995 5,-5v-50c-0.00331,-2.76005 -2.23995,-4.99669 -5,-5zM21,2h18v56h-18zM58,55c0,1.65685 -1.34315,3 -3,3h-14v-56h14c1.65685,0 3,1.34315 3,3z" fill="#373737"></path><path d="M7,10h6c1.65685,0 3,-1.34315 3,-3c0,-1.65685 -1.34315,-3 -3,-3h-6c-1.65685,0 -3,1.34315 -3,3c0,1.65685 1.34315,3 3,3zM7,6h6c0.55228,0 1,0.44772 1,1c0,0.55228 -0.44772,1 -1,1h-6c-0.55228,0 -1,-0.44772 -1,-1c0,-0.55228 0.44772,-1 1,-1z" fill="#373737"></path><path d="M27,10h6c1.65685,0 3,-1.34315 3,-3c0,-1.65685 -1.34315,-3 -3,-3h-6c-1.65685,0 -3,1.34315 -3,3c0,1.65685 1.34315,3 3,3zM27,6h6c0.55228,0 1,0.44772 1,1c0,0.55228 -0.44772,1 -1,1h-6c-0.55228,0 -1,-0.44772 -1,-1c0,-0.55228 0.44772,-1 1,-1z" fill="#373737"></path><path d="M53,4h-6c-1.65685,0 -3,1.34315 -3,3c0,1.65685 1.34315,3 3,3h6c1.65685,0 3,-1.34315 3,-3c0,-1.65685 -1.34315,-3 -3,-3zM53,8h-6c-0.55228,0 -1,-0.44772 -1,-1c0,-0.55228 0.44772,-1 1,-1h6c0.55228,0 1,0.44772 1,1c0,0.55228 -0.44772,1 -1,1z" fill="#373737"></path><path d="M4,20c0,1.10457 0.89543,2 2,2h8c1.10457,0 2,-0.89543 2,-2v-5c0,-1.10457 -0.89543,-2 -2,-2h-8c-1.10457,0 -2,0.89543 -2,2zM6,15h8v5h-8z" fill="#373737"></path><path d="M4,31c0,1.10457 0.89543,2 2,2h8c1.10457,0 2,-0.89543 2,-2v-5c0,-1.10457 -0.89543,-2 -2,-2h-8c-1.10457,0 -2,0.89543 -2,2zM6,26h8v5h-8z" fill="#373737"></path><path d="M4,42c0,1.10457 0.89543,2 2,2h8c1.10457,0 2,-0.89543 2,-2v-5c0,-1.10457 -0.89543,-2 -2,-2h-8c-1.10457,0 -2,0.89543 -2,2zM6,37h8v5h-8z" fill="#373737"></path><path d="M4,53c0,1.10457 0.89543,2 2,2h8c1.10457,0 2,-0.89543 2,-2v-5c0,-1.10457 -0.89543,-2 -2,-2h-8c-1.10457,0 -2,0.89543 -2,2zM6,48h8v5h-8z" fill="#373737"></path><path d="M34,13h-8c-1.10457,0 -2,0.89543 -2,2v5c0,1.10457 0.89543,2 2,2h8c1.10457,0 2,-0.89543 2,-2v-5c0,-1.10457 -0.89543,-2 -2,-2zM26,20v-5h8v5z" fill="#373737"></path><path d="M34,24h-8c-1.10457,0 -2,0.89543 -2,2v5c0,1.10457 0.89543,2 2,2h8c1.10457,0 2,-0.89543 2,-2v-5c0,-1.10457 -0.89543,-2 -2,-2zM26,31v-5h8v5z" fill="#373737"></path><path d="M54,13h-8c-1.10457,0 -2,0.89543 -2,2v5c0,1.10457 0.89543,2 2,2h8c1.10457,0 2,-0.89543 2,-2v-5c0,-1.10457 -0.89543,-2 -2,-2zM46,20v-5h8v5z" fill="#373737"></path><path d="M54,24h-8c-1.10457,0 -2,0.89543 -2,2v5c0,1.10457 0.89543,2 2,2h8c1.10457,0 2,-0.89543 2,-2v-5c0,-1.10457 -0.89543,-2 -2,-2zM46,31v-5h8v5z" fill="#373737"></path><path d="M54,35h-8c-1.10457,0 -2,0.89543 -2,2v5c0,1.10457 0.89543,2 2,2h8c1.10457,0 2,-0.89543 2,-2v-5c0,-1.10457 -0.89543,-2 -2,-2zM46,42v-5h8v5z" fill="#373737"></path></g></g></svg>