<svg xmlns="http://www.w3.org/2000/svg" xmlns:xlink="http://www.w3.org/1999/xlink" viewBox="0,0,256,256" width="128px" height="128px"><g fill="none" fill-rule="nonzero" stroke="none" stroke-width="1" stroke-linecap="butt" stroke-linejoin="miter" stroke-miterlimit="10" stroke-dasharray="" stroke-dashoffset="0" font-family="none" font-weight="none" font-size="none" text-anchor="none" style="mix-blend-mode: normal"><g transform="scale(2,2)"><path d="M44.3,56.3h-13.4c-4.5,0 -8.1,3.6 -8.1,8.1v3.4l17.2,5.8zM54.4,88l5.8,17.3h3.4c4.5,0 8.1,-3.6 8.1,-8.1v-14.1z" fill="#ffffff"></path><path d="M54.4,88l-14.4,-14.4l1,-4.899c5.9,-29.6 33.9,-49.6 63.8,-45.5l0.2,2.6c2.7,29.3 -17.4,55.9 -46.3,61.4l-4.3,0.799" fill="#fff5fb"></path><path d="M104.37,23.166c-1.597,0 -1.824,1.534 -3.67,1.534c0.899,27.9 -20.601,50.7 -48.4,56l-4.4,0.8l6.5,6.5l4.3,-0.8c28.899,-5.5 49,-32.1 46.3,-61.4l-0.2,-2.6c-0.029,-0.004 -0.06,-0.008 -0.089,-0.012c-0.121,-0.015 -0.234,-0.022 -0.341,-0.022" fill="#bf616a"></path><path d="M54.4,91c-0.8,0 -1.6,-0.3 -2.1,-0.9l-14.4,-14.4c-0.7,-0.7 -1,-1.7 -0.8,-2.7l1,-4.9c5.6,-28.1 30.5,-48.5 59.1,-48.5c2.7,0 5.4,0.2 8.1,0.5c1.4,0.2 2.5,1.3 2.6,2.7l0.2,2.6c2.8,31 -18.1,58.8 -48.7,64.6l-4.4,1c-0.2,0 -0.4,0 -0.6,0zM43.3,72.6l12.1,12.1l2.8,-0.5c27.5,-5.2 46.4,-30.2 43.9,-58.2v-0.1c-1.7,-0.2 -3.3,-0.2 -5,-0.2c-25.8,0 -48.1,18.3 -53.2,43.6z" fill="#454b54"></path><path d="M81.8,37.1c-5.08102,0 -9.2,4.11898 -9.2,9.2c0,5.08102 4.11898,9.2 9.2,9.2c5.08102,0 9.2,-4.11898 9.2,-9.2c0,-5.08102 -4.11898,-9.2 -9.2,-9.2z" fill="#ffffff"></path><path d="M40,76.6c-0.3,0 -0.6,0 -0.9,-0.2l-17.3,-5.8c-1.2,-0.4 -2.1,-1.6 -2.1,-2.8v-3.4c0,-6.1 5,-11.1 11.1,-11.1h13.5c1.7,0 3,1.3 3,3c0,1.7 -1.3,3 -3,3h-13.4c-2.8,0 -5.1,2.3 -5.1,5.1v1.2l15.2,5.1c1.6,0.5 2.4,2.2 1.9,3.8c-0.5,1.3 -1.6,2.1 -2.9,2.1zM63.5,108.3h-3.4c-1.3,0 -2.4,-0.8 -2.8,-2.1l-5.7,-17.2c-0.5,-1.6 0.3,-3.3 1.9,-3.8c1.6,-0.5 3.3,0.3 3.8,1.9l5.1,15.2h1.2c2.8,0 5.1,-2.3 5.1,-5.1v-14.1c0,-1.7 1.3,-3 3,-3c1.7,0 3,1.3 3,3v14.1c0,6.1 -5,11.1 -11.2,11.1z" fill="#454b54"></path><path d="M38.3,83.4l6.3,6.3v0c2,5.3 -1.9,11 -7.6,11.1l-10,0.2l0.1,-9.9c0.1,-5.7 5.8,-9.6 11.2,-7.7z" fill="#ebcb8b"></path><path d="M27,104c-0.8,0 -1.6,-0.3 -2.1,-0.9c-0.6,-0.6 -0.9,-1.4 -0.9,-2.2l0.1,-9.9c0.1,-6.1 5.1,-11.1 11.2,-11.1c1.3,0 2.6,0.2 3.9,0.7c0.4,0.1 0.8,0.4 1.1,0.7l6.3,6.3c0.3,0.3 0.5,0.7 0.7,1.1c1.3,3.4 0.8,7.3 -1.3,10.3c-2.1,3 -5.5,4.8 -9.1,4.9l-9.9,0.1c0.1,0 0,0 0,0zM35.4,85.9c-2.9,0 -5.2,2.3 -5.2,5.2l-0.1,6.9l6.9,-0.1c1.7,0 3.3,-0.9 4.3,-2.3c0.9,-1.3 1.1,-2.8 0.8,-4.2l-5.3,-5.3c-0.5,-0.1 -1,-0.2 -1.4,-0.2z" fill="#454b54"></path></g></g></svg>