<svg xmlns="http://www.w3.org/2000/svg" xmlns:xlink="http://www.w3.org/1999/xlink" viewBox="0,0,256,256" width="240px" height="240px"><g fill="none" fill-rule="nonzero" stroke="none" stroke-width="1" stroke-linecap="butt" stroke-linejoin="miter" stroke-miterlimit="10" stroke-dasharray="" stroke-dashoffset="0" font-family="none" font-weight="none" font-size="none" text-anchor="none" style="mix-blend-mode: normal"><g transform="scale(4.26667,4.26667)"><circle cx="30" cy="30" r="19" fill="#bf616a"></circle><path d="M34.6,27.477c0.99325,0.72453 2.32803,0.76971 3.368,0.114c0.48023,-0.30281 0.86233,-0.73841 1.1,-1.254l2.956,2.956c0.78076,0.781 0.78076,2.047 0,2.828l-2.956,2.956c1.20023,0.56091 1.89043,1.84269 1.69806,3.15348c-0.19238,1.31079 -1.22178,2.34019 -2.53257,2.53257c-1.31079,0.19238 -2.59257,-0.49782 -3.15348,-1.69806l-2.956,2.956c-0.781,0.78076 -2.047,0.78076 -2.828,0l-2.956,-2.956c0.51559,-0.23767 0.95119,-0.61977 1.254,-1.1c0.82453,-1.29318 0.54092,-3.00003 -0.65751,-3.95707c-1.19843,-0.95705 -2.92573,-0.85608 -4.00449,0.23407c-0.24345,0.23957 -0.44014,0.52239 -0.58,0.834l-3.663,-3.663c-0.78076,-0.781 -0.78076,-2.047 0,-2.828l3.38,-3.38c-0.98601,-0.04421 -1.88554,-0.57568 -2.4,-1.418c-0.78121,-1.2948 -0.4766,-2.96862 0.71068,-3.90518c1.18728,-0.93656 2.88602,-0.84305 3.96332,0.21818c0.52238,0.52464 0.83013,1.22537 0.863,1.965l3.38,-3.38c0.781,-0.78076 2.047,-0.78076 2.828,0l3.663,3.663c-0.31161,0.13986 -0.59443,0.33655 -0.834,0.58c-0.62091,0.62046 -0.93893,1.48172 -0.87025,2.3568c0.06868,0.87509 0.51716,1.67619 1.22725,2.1922z" fill="#ebcb8b"></path><path d="M17.1,30c-0.0022,0.79586 0.31394,1.55955 0.878,2.121l3.663,3.663c0.23283,0.23306 0.56551,0.3365 0.88944,0.27655c0.32393,-0.05995 0.59756,-0.2756 0.73156,-0.57655c0.09063,-0.19901 0.21707,-0.37968 0.373,-0.533c0.71585,-0.73415 1.87096,-0.80799 2.67446,-0.17096c0.8035,0.63703 0.99507,1.77853 0.44354,2.64296c-0.19837,0.31647 -0.48328,0.56946 -0.821,0.729c-0.30133,0.13389 -0.51729,0.40773 -0.57726,0.73197c-0.05997,0.32424 0.04376,0.65721 0.27726,0.89003l2.956,2.956c1.17286,1.16785 3.06914,1.16785 4.242,0l2.122,-2.122c1.56659,1.53273 4.07488,1.51937 5.62504,-0.02998c1.55016,-1.54934 1.56486,-4.05762 0.03296,-5.62502v0l2.122,-2.122c1.17115,-1.1715 1.17115,-3.0705 0,-4.242l-2.96,-2.959c-0.23193,-0.23491 -0.56585,-0.33846 -0.89,-0.276c-0.32425,0.06062 -0.59774,0.27725 -0.731,0.579c-0.16002,0.33745 -0.41334,0.622 -0.73,0.82c-0.86393,0.54905 -2.00298,0.35716 -2.63933,-0.44465c-0.63635,-0.80181 -0.56457,-1.95468 0.16633,-2.67135c0.15297,-0.15634 0.33372,-0.28283 0.533,-0.373c0.30133,-0.13389 0.51729,-0.40773 0.57726,-0.73197c0.05997,-0.32424 -0.04376,-0.65721 -0.27726,-0.89003l-3.663,-3.663c-1.1715,-1.17115 -3.0705,-1.17115 -4.242,0l-2.213,2.213c-0.17,-0.2921 -0.37705,-0.561 -0.616,-0.8c-0.82064,-0.82729 -1.96317,-1.2525 -3.125,-1.163c-1.74537,0.12822 -3.20474,1.37617 -3.60234,3.08048c-0.3976,1.70431 0.35889,3.46921 1.86734,4.35652l-2.211,2.21c-0.56369,0.56277 -0.87908,1.32748 -0.876,2.124zM19.393,29.293l3.379,-3.38c0.27975,-0.27968 0.36835,-0.69798 0.226,-1.06706c-0.14235,-0.36908 -0.48889,-0.61955 -0.884,-0.63894c-0.65762,-0.02823 -1.25781,-0.38271 -1.6,-0.945c-0.52701,-0.86498 -0.32417,-1.98739 0.47225,-2.6132c0.79642,-0.62581 1.93496,-0.55744 2.65075,0.1592c0.34648,0.34975 0.55008,0.81613 0.571,1.308c0.01976,0.39492 0.27037,0.74112 0.63937,0.88323c0.369,0.14211 0.78708,0.05343 1.06663,-0.22623l3.38,-3.379c0.3905,-0.39038 1.0235,-0.39038 1.414,0l2.828,2.828c-0.82691,0.82549 -1.25154,1.97127 -1.16232,3.13628c0.08922,1.16501 0.68336,2.23277 1.62632,2.92272v0c1.33137,0.96521 3.1158,1.02419 4.508,0.149c0.24578,-0.15958 0.47434,-0.34424 0.682,-0.551l2.123,2.121c0.39038,0.3905 0.39038,1.0235 0,1.414l-2.955,2.956c-0.22929,0.22968 -0.33286,0.55634 -0.2778,0.87617c0.05506,0.31983 0.26191,0.59305 0.5548,0.73283c0.20598,0.09613 0.39428,0.22629 0.557,0.385c0.57298,0.5605 0.75599,1.40895 0.46499,2.1558c-0.291,0.74685 -0.99978,1.24783 -1.80093,1.27292c-0.80115,0.02509 -1.53989,-0.43055 -1.87706,-1.15772c-0.13978,-0.29289 -0.413,-0.49974 -0.73283,-0.5548c-0.31983,-0.05506 -0.64649,0.04851 -0.87617,0.2778l-2.956,2.955c-0.3905,0.39038 -1.0235,0.39038 -1.414,0l-2.121,-2.12c0.20731,-0.20744 0.39232,-0.43602 0.552,-0.682c1.10852,-1.72278 0.73625,-4.00462 -0.86233,-5.28575c-1.59859,-1.28114 -3.90672,-1.14742 -5.34667,0.30975l-2.828,-2.828c-0.39038,-0.3905 -0.39038,-1.0235 0,-1.414z" fill="#373737"></path><path d="M12.63,34.737c-0.14525,-0.53295 -0.69505,-0.84725 -1.228,-0.702c-0.53295,0.14525 -0.84725,0.69505 -0.702,1.228c2.76256,10.16961 12.93707,16.45543 23.26779,14.37486c10.33072,-2.08057 17.27885,-11.81483 15.88947,-22.26099c-1.38938,-10.44616 -10.64034,-18.02587 -21.15574,-17.33382c-10.5154,0.69205 -18.69318,9.4188 -18.70153,19.95695c0,0.55228 0.44772,1 1,1c0.55228,0 1,-0.44772 1,-1c0.01,-9.46586 7.3571,-17.303 16.80262,-17.92334c9.44551,-0.62034 17.7545,6.18859 19.00243,15.57183c1.24793,9.38324 -4.9926,18.12719 -14.27191,19.99717c-9.27932,1.86998 -18.41941,-3.77445 -20.90313,-12.90865z" fill="#373737"></path><path d="M32.121,37.364c0.26535,0.00072 0.51995,-0.10479 0.707,-0.293l4.243,-4.243c0.37897,-0.39238 0.37355,-1.01608 -0.01218,-1.40182c-0.38573,-0.38573 -1.00944,-0.39115 -1.40182,-0.01218l-4.243,4.243c-0.28591,0.28599 -0.37142,0.71604 -0.21668,1.08965c0.15474,0.37362 0.51928,0.61726 0.92368,0.61735z" fill="#373737"></path><path d="M24.343,29.586c0.26519,-0.00006 0.51951,-0.10545 0.707,-0.293l4.243,-4.243c0.37897,-0.39238 0.37355,-1.01608 -0.01218,-1.40182c-0.38573,-0.38573 -1.00944,-0.39115 -1.40182,-0.01218l-4.243,4.243c-0.28591,0.28599 -0.37142,0.71604 -0.21668,1.08965c0.15474,0.37362 0.51928,0.61726 0.92368,0.61735z" fill="#373737"></path><path d="M3.293,31.707c0.3905,0.39038 1.0235,0.39038 1.414,0l3,-3c0.37897,-0.39238 0.37355,-1.01608 -0.01218,-1.40182c-0.38573,-0.38573 -1.00944,-0.39115 -1.40182,-0.01218l-1.247,1.247c0.67674,-11.62297 9.28724,-21.24017 20.76499,-23.19276c11.47775,-1.95259 22.78399,4.2764 27.26601,15.02176c0.21291,0.50976 0.79874,0.75041 1.3085,0.5375c0.50976,-0.21291 0.75041,-0.79874 0.5375,-1.3085c-4.85238,-11.64368 -17.12034,-18.37576 -29.54815,-16.21464c-12.4278,2.16112 -21.70299,12.63942 -22.33985,25.23764l-1.328,-1.328c-0.25107,-0.25996 -0.62288,-0.36421 -0.97251,-0.2727c-0.34963,0.09152 -0.62267,0.36456 -0.71419,0.71419c-0.09152,0.34963 0.01274,0.72143 0.2727,0.97251z" fill="#373737"></path><path d="M56.707,28.293c-0.3905,-0.39038 -1.0235,-0.39038 -1.414,0l-3,3c-0.37897,0.39238 -0.37355,1.01608 0.01218,1.40182c0.38573,0.38573 1.00944,0.39115 1.40182,0.01218l1.247,-1.247c-0.67674,11.62297 -9.28724,21.24017 -20.76499,23.19276c-11.47775,1.95259 -22.78399,-4.2764 -27.26601,-15.02176c-0.21291,-0.50976 -0.79874,-0.75041 -1.3085,-0.5375c-0.50976,0.21291 -0.75041,0.79874 -0.5375,1.3085c4.85238,11.64368 17.12034,18.37576 29.54815,16.21464c12.4278,-2.16112 21.70299,-12.63942 22.33985,-25.23764l1.328,1.328c0.39238,0.37897 1.01608,0.37355 1.40182,-0.01218c0.38573,-0.38573 0.39115,-1.00944 0.01218,-1.40182z" fill="#373737"></path></g></g></svg>